<svg xmlns="http://www.w3.org/2000/svg" width="33.678" height="22.337" viewBox="0 0 33.678 22.337">
  <path id="Path_20371" data-name="Path 20371" d="M34.678,19.106V37.021a1.963,1.963,0,0,1-.253.967l-12.5-9.346Zm-.113-1.128A1.977,1.977,0,0,0,32.7,16.659H2.974a1.978,1.978,0,0,0-1.862,1.319l16.727,12.51ZM1,19.106V37.021a1.963,1.963,0,0,0,.253.967l12.5-9.346ZM18.129,31.482a.486.486,0,0,1-.579,0l-2.988-2.235L1.929,38.7a1.963,1.963,0,0,0,1.045.3H32.7a1.963,1.963,0,0,0,1.045-.3L21.117,29.248Z" transform="translate(-1 -16.659)" fill="#88b3da"/>
</svg>
