<svg xmlns="http://www.w3.org/2000/svg" width="33.678" height="35.874" viewBox="0 0 33.678 35.874">
  <path id="Path_20372" data-name="Path 20372" d="M46.9,41.1a8.8,8.8,0,0,1-7.842,5.727c-.429,0-7.114.377-16.722-9.334-7.733-7.815-8.678-16.219-8.76-17.816-.08-1.555.338-5.457,5.375-8.356.624-.359,1.862-.518,2.181-.178.142.151,4.37,7.564,4.481,7.81a1.746,1.746,0,0,1,.167.724,2.15,2.15,0,0,1-.68,1.27,11.857,11.857,0,0,1-1.478,1.4,14.676,14.676,0,0,0-1.478,1.346,1.963,1.963,0,0,0-.679,1.168c.031.791.639,3.623,5.271,7.959s6.865,5.56,7.079,5.644a1.529,1.529,0,0,0,.536.126q.43,0,1.1-.723c.445-.483,1.94-2.667,2.417-3.15a1.948,1.948,0,0,1,1.192-.723,1.477,1.477,0,0,1,.679.177c.231.118,7.2,4.462,7.33,4.607.361.395.106,1.627-.167,2.324" transform="translate(-13.564 -10.954)" fill="#88b3da"/>
</svg>
