<svg xmlns="http://www.w3.org/2000/svg" width="15.215" height="19.435" viewBox="0 0 15.215 19.435">
  <path id="Path_21411" data-name="Path 21411" d="M30.817,19.435a10.051,10.051,0,0,0,2.2-3.681c.145-.557.742-2.832.742-2.832a3.189,3.189,0,0,0,2.73,1.368c3.593,0,6.182-3.3,6.182-7.409C42.671,2.945,39.46,0,35.327,0c-5.14,0-7.871,3.451-7.871,7.209,0,1.747.93,3.922,2.418,4.615.226.1.346.059.4-.159.04-.166.24-.975.331-1.351a.356.356,0,0,0-.083-.342,4.634,4.634,0,0,1-.886-2.718,5.156,5.156,0,0,1,5.379-5.17A4.7,4.7,0,0,1,39.989,6.93c0,3.222-1.627,5.455-3.745,5.455a1.73,1.73,0,0,1-1.764-2.152,24,24,0,0,0,.987-3.966A1.5,1.5,0,0,0,33.96,4.588c-1.2,0-2.156,1.237-2.156,2.893a4.3,4.3,0,0,0,.356,1.769s-1.181,4.991-1.4,5.921a11.441,11.441,0,0,0-.041,3.42Z" transform="translate(-27.457)" fill="#707070"/>
</svg>
