<svg id="Group_4409" data-name="Group 4409" xmlns="http://www.w3.org/2000/svg" width="21.435" height="21.435" viewBox="0 0 21.435 21.435">
  <path id="Path_4" data-name="Path 4" d="M1112.711,507.945h-9.6a5.922,5.922,0,0,0-5.915,5.915v9.6a5.921,5.921,0,0,0,5.915,5.915h9.6a5.922,5.922,0,0,0,5.916-5.915v-9.6a5.922,5.922,0,0,0-5.916-5.915Zm4.014,15.52a4.018,4.018,0,0,1-4.014,4.014h-9.6a4.018,4.018,0,0,1-4.013-4.014v-9.6a4.017,4.017,0,0,1,4.013-4.013h9.6a4.018,4.018,0,0,1,4.014,4.013Zm0,0" transform="translate(-1097.191 -507.945)" fill="#505050"/>
  <path id="Path_5" data-name="Path 5" d="M1113.925,519.157a5.523,5.523,0,1,0,5.524,5.523,5.529,5.529,0,0,0-5.524-5.523Zm0,9.144a3.621,3.621,0,1,1,3.622-3.621,3.626,3.626,0,0,1-3.622,3.621Zm0,0" transform="translate(-1103.208 -513.962)" fill="#505050"/>
  <path id="Path_6" data-name="Path 6" d="M1131.129,515.676a1.395,1.395,0,1,0,.986.408,1.4,1.4,0,0,0-.986-.408Zm0,0" transform="translate(-1114.656 -512.094)" fill="#505050"/>
</svg>
