<svg xmlns="http://www.w3.org/2000/svg" width="24.305" height="16.769" viewBox="0 0 24.305 16.769">
  <g id="Group_4243" data-name="Group 4243" transform="translate(0.5 0.566)">
    <path id="Path_21374" data-name="Path 21374" d="M14.909.206a.784.784,0,0,1,1.059,0l7.1,7.1a.691.691,0,0,1,.235.51h0v.039h0V7.9h0a.559.559,0,0,1-.235.471l-7.1,7.1a.713.713,0,0,1-1.059,0,.784.784,0,0,1,0-1.059L20.677,8.68H0V7.033H20.677L14.909,1.265A.784.784,0,0,1,14.909.206Z" transform="translate(0 0)" fill="#707070" stroke="#707070" stroke-width="1" fill-rule="evenodd"/>
  </g>
</svg>
