<svg xmlns="http://www.w3.org/2000/svg" width="161.554" height="161.554" viewBox="0 0 161.554 161.554">
  <g id="Group_4253" data-name="Group 4253" transform="translate(-721.223 -150)">
    <circle id="Ellipse_439" data-name="Ellipse 439" cx="80.777" cy="80.777" r="80.777" transform="translate(721.223 150)" fill="#88b3da"/>
    <g id="Layer_1" data-name="Layer 1" transform="matrix(0.966, -0.259, 0.259, 0.966, 720, 193.457)">
      <g id="_4UOzKG" data-name="4UOzKG" transform="translate(0 0)">
        <g id="Group_4252" data-name="Group 4252" transform="translate(0 0)">
          <path id="Path_21375" data-name="Path 21375" d="M35.08,78.14a9.929,9.929,0,0,0-.706,1.418,2.119,2.119,0,0,0-.3.65,3.712,3.712,0,0,1-.567,1.241.754.754,0,0,1-.91.149,4.942,4.942,0,0,1-1.1-1.454q-.276-.55-.575-1.087a.781.781,0,0,0-1.359-.2,5.388,5.388,0,0,0-1.217,1.8,10.056,10.056,0,0,1-.842,1.859,1.623,1.623,0,0,1-2.321.477,2.777,2.777,0,0,1-.766-.722,6.622,6.622,0,0,1-1.02-2.612,2.7,2.7,0,0,0-3.543-2.131,4.786,4.786,0,0,1-2.056.183,2.054,2.054,0,0,1-1.221-.353,2.937,2.937,0,0,1-.979-1.293.205.205,0,0,0-.133-.152q-.778-.206-1.558-.4c-.089-.023-.154.04-.225.078l-.125-.01a.239.239,0,0,0-.153-.208,3.425,3.425,0,0,0-.927-.285,2.24,2.24,0,0,1-.795-.281,3.406,3.406,0,0,0-.907-.341,17.885,17.885,0,0,1-3.049-1.357,3.816,3.816,0,0,0-1.06-.571,15.427,15.427,0,0,1-1.843-1.131,4.378,4.378,0,0,0-.99-.7c-.2-.133-.443-.2-.57-.431a3.571,3.571,0,0,0-.847-.7c-.052-.05-.1-.1-.156-.147L1.138,68.3l0,0c-.187-.279-.373-.56-.56-.839a1.577,1.577,0,0,1-.282-.723,6.292,6.292,0,0,1,0-1.983,2.246,2.246,0,0,1,.422-1.074,4.105,4.105,0,0,0,.569-1.051c.316-.56.629-1.122.948-1.68.436-.765.878-1.527,1.318-2.291a2.292,2.292,0,0,0,.422-.706h0a7.256,7.256,0,0,0,.561-.99.1.1,0,0,0,.017-.055c.428-.612.757-1.281,1.125-1.927h0a8.607,8.607,0,0,1,.985-1l0,0,.419-.278a1.757,1.757,0,0,1,.874-.375,6.191,6.191,0,0,1,1.706-.027,3.38,3.38,0,0,1,1.381.408l1.716,1.126h0a5.269,5.269,0,0,0,1.126.717h0a6.115,6.115,0,0,0,1.417.85h0a6.8,6.8,0,0,0,1.564.843c.1.06.2.128.3.177a19.832,19.832,0,0,0,6.092,1.82,9.72,9.72,0,0,0,3.777-.159,4.253,4.253,0,0,0,3.139-5.337A5.458,5.458,0,0,0,28.9,51.489a10.019,10.019,0,0,0-2.251-1.908,19.333,19.333,0,0,0-2.516-1.6c-1.618-.924-3.307-1.711-4.978-2.53-.834-.409-1.663-.83-2.495-1.245-.212-.123-.418-.258-.638-.368-.574-.29-1.109-.656-1.707-.9-.23-.159-.543-.179-.718-.428a3.066,3.066,0,0,0-.7-.429h0a2.21,2.21,0,0,0-.708-.428h0a3.973,3.973,0,0,0-.854-.553.86.86,0,0,1-.435-.293c-.517-.385-1.026-.782-1.551-1.153A11.828,11.828,0,0,0,8.23,38.81h0a7.537,7.537,0,0,0-1.139-.983L6.8,37.545c-.13-.262-.4-.4-.584-.6-.475-.52-.972-1.019-1.461-1.526l-.086-.14-1.26-1.629a12.362,12.362,0,0,1-1.14-1.914,4.582,4.582,0,0,0-.418-.849l-.837-2.066a11.348,11.348,0,0,0-.432-1.49,7.876,7.876,0,0,1-.426-2.253A37.3,37.3,0,0,1,.016,20.54a9.768,9.768,0,0,1,.278-2.275c.092-.4.183-.795.275-1.191.006-.045.01-.089.016-.135a10.007,10.007,0,0,0,.421-1.5,3.638,3.638,0,0,1,.429-1.189,7.26,7.26,0,0,0,.558-1.289,4.389,4.389,0,0,1,.426-.856c.16-.116.2-.312.285-.47A13.978,13.978,0,0,0,3.557,10.2a2.763,2.763,0,0,1,.562-.782,14.325,14.325,0,0,0,.989-1.2h0C5.828,7.429,6.6,6.693,7.359,5.95A11.9,11.9,0,0,1,8.58,4.957a2.411,2.411,0,0,0,.782-.564.6.6,0,0,1,.281-.152L11.49,3.124h0a3.407,3.407,0,0,0,.847-.429A33.087,33.087,0,0,1,17.578.843a1.425,1.425,0,0,0,.174-.016,32.489,32.489,0,0,1,4.254-.7A3.557,3.557,0,0,0,23.044.007L23.387,0H27.21l.344.007A8.725,8.725,0,0,0,28.912.14l.2.008a3.647,3.647,0,0,0,.857.129c.341.123.71.06,1.055.154l2.064.419a.2.2,0,0,0,.285,0c.065.041.127.091.213.065.176.251.487.078.7.225a13.175,13.175,0,0,0,1.422.435c.592.108,1.121.408,1.7.554a7.965,7.965,0,0,0,1.133.436c.095.108.255.037.354.13A54.819,54.819,0,0,1,44.35,5.4l.269.14a10.7,10.7,0,0,0,1.571.992c.356.078.564.382.856.558a5.085,5.085,0,0,0,.844.572h0a7.809,7.809,0,0,1,1.293,1.156c.214.309.326.669.547.969v0a.942.942,0,0,0,.02.21,4.808,4.808,0,0,1-.458,3.744l-.137.217a3.549,3.549,0,0,0-.56.853h0a4.438,4.438,0,0,0-.579.847l-.128.205a1.163,1.163,0,0,0-.292.431,5.8,5.8,0,0,1-.553.864,8.009,8.009,0,0,0-.85,1.267h0c-.1.14-.2.281-.292.421-.16.1-.129.326-.269.442a12.535,12.535,0,0,0-.863,1.259.123.123,0,0,0-.068.132,11.659,11.659,0,0,0-.783,1.143l-.14.2A6.074,6.074,0,0,1,41.8,23.376a.907.907,0,0,1-.419.149,4,4,0,0,0-.86.132,4.645,4.645,0,0,1-2.112-.279l-1.135-.561a2.335,2.335,0,0,1-.653-.431,7.768,7.768,0,0,0-1.326-.857h0a7.905,7.905,0,0,0-1.418-.851h0a4.539,4.539,0,0,0-1-.555.084.084,0,0,0-.057-.017,5.433,5.433,0,0,0-1.428-.706l0,0a1.416,1.416,0,0,0-.635-.288v0a4.575,4.575,0,0,0-1.424-.567,8.046,8.046,0,0,1-1.216-.417,4.725,4.725,0,0,0-1.475-.358.736.736,0,0,1-.414-.075,2.96,2.96,0,0,0-.931-.133,10.957,10.957,0,0,0-2.9.213,1.311,1.311,0,0,0-.286.135,1.334,1.334,0,0,0-.717.354l-.424.341a2.414,2.414,0,0,0-.779,1.115,3.167,3.167,0,0,0-.064,2.655h0a3.11,3.11,0,0,0,.7,1.074l1.272,1.2a2.041,2.041,0,0,0,.567.428h0a5.4,5.4,0,0,0,.995.71,1.368,1.368,0,0,1,.7.424,11.881,11.881,0,0,0,1.992,1.135h0c.045.094.139.123.221.169,1.388.758,2.815,1.439,4.229,2.148a.6.6,0,0,0,.3.093h0a3.669,3.669,0,0,0,.834.439c.878.425,1.728.905,2.632,1.276l1.061.551q1.528.848,3.054,1.7h0c.6.4,1.206.8,1.839,1.152l.2.128q1.32.988,2.637,1.978c.265.256.636.388.849.708L45.7,39.1h0l.917,1c.241.18.3.544.632.632.047.333.354.5.49.781L49.025,43.5a7.363,7.363,0,0,1,.418.789,11.329,11.329,0,0,1,.844,1.9q.289.852.579,1.7a6.306,6.306,0,0,1,.271,1.129c.054.31.112.621.163.932.095.585.186,1.172.278,1.757v0c.007.306,0,.613.026.918a20.274,20.274,0,0,1-.061,3.7c-.082.83-.264,1.645-.39,2.468-.1.371-.191.744-.288,1.115a7.634,7.634,0,0,0-.422,1.291v0q-.425,1.026-.853,2.054h0q-.7,1.239-1.408,2.484h0a5.48,5.48,0,0,0-.567.85h0l-.859,1.126q-.421.506-.843,1.01a12.673,12.673,0,0,0-1.006,1.041q-.489.463-.979.928a4.33,4.33,0,0,0-.854.7h0a8.972,8.972,0,0,0-1.133.851h0a12.812,12.812,0,0,0-1.276.85h0a4.1,4.1,0,0,0-1.135.707v0a4.981,4.981,0,0,0-.99.711h0a7.332,7.332,0,0,0-1.36.989l-.062.057a7.98,7.98,0,0,0-2,2.492l-.044.082Z" transform="translate(44.107 20.617)" fill="#fff"/>
          <path id="Path_21376" data-name="Path 21376" d="M4.853,2.45a5.7,5.7,0,0,1,.71,2.883,2.871,2.871,0,0,1-1.25,2.435,2.46,2.46,0,0,1-1.822.339A2.677,2.677,0,0,1,.075,5.965,4.282,4.282,0,0,1,.2,3.91,11.394,11.394,0,0,1,2.04.363.873.873,0,0,1,3.01.03a3.151,3.151,0,0,1,.765.8c.205.307.436.6.657.9h0a3.5,3.5,0,0,0,.424.72Z" transform="translate(74.253 105.316)" fill="#fff"/>
          <path id="Path_21377" data-name="Path 21377" d="M3.2.1A1.219,1.219,0,0,1,3.623.17c.112.01.179.1.265.153a4.046,4.046,0,0,1,.862.849h0A2.188,2.188,0,0,1,4.74,2.719c-.089.146-.179.292-.269.438a1.1,1.1,0,0,0-.19.149c-.122.15-.448.2-.393.375.047.15.329.228.507.339a2.078,2.078,0,0,1,.622.907,4.1,4.1,0,0,1,.065.762A2.127,2.127,0,0,1,3.965,7.253c-.11.059-.2.167-.343.15a8.609,8.609,0,0,1-1.366.12,3.278,3.278,0,0,1-1.744-.7h0A2.192,2.192,0,0,1,.078,4.85a.559.559,0,0,1,.143-.3,3.218,3.218,0,0,1,1.087-.878L.93,3.443A.6.6,0,0,1,.8,3.388,1.854,1.854,0,0,1,.79.594,4.288,4.288,0,0,1,2.07.036,3.149,3.149,0,0,1,3.2.1ZM2.548,6.417a1.02,1.02,0,0,0,1.126-.961A1.336,1.336,0,0,0,2.539,4.322,1.326,1.326,0,0,0,1.427,5.463C1.433,6.047,1.865,6.414,2.548,6.417ZM2.532,1.159a.887.887,0,0,0-.963.9,1.111,1.111,0,0,0,.975,1A1.027,1.027,0,0,0,3.49,2.048a.853.853,0,0,0-.959-.888Z" transform="translate(123.801 59.975)" fill="#fff"/>
          <path id="Path_21378" data-name="Path 21378" d="M1.369,4.314c0,.472,0,.945,0,1.417l.008.283c.092.112.22.061.33.061.836,0,1.672,0,2.508,0a.628.628,0,0,1,.407.082c.043.082.1.162.05.261-.123.264,0,.521.016.782a1.153,1.153,0,0,1-.443.1c-1.286-.006-2.571-.011-3.858,0C.088,7.3,0,7.21,0,6.918Q.015,3.662,0,.407C0,.087.129,0,.421,0Q2.348.019,4.276.014c.248,0,.347.095.344.33,0,.283,0,.567-.007.849h0a.74.74,0,0,1-.443.079c-.812,0-1.625,0-2.437,0-.122,0-.261-.058-.363.065,0,.52,0,1.038,0,1.558.084.129.214.072.323.074.531.006,1.061.006,1.592,0,.915-.006.823-.051.837.847.006.33-.135.432-.446.426-.66-.014-1.322-.007-1.982,0-.109,0-.239-.055-.326.069Z" transform="translate(2.522 60.085)" fill="#fff"/>
          <path id="Path_21379" data-name="Path 21379" d="M33.372.175l-.081.4c-.049,0-.1.006-.126.06-.059,0-.118.008-.177.008Q16.665.642.343.648C.077.648.01.57,0,.308c-.013-.388.241-.3.448-.3q16.18,0,32.361,0c.142,0,.282.014.424.021Z" transform="translate(105.309 54.607)" fill="#fff"/>
          <path id="Path_21380" data-name="Path 21380" d="M2.923.137c.129.033.238-.04.354-.071a.462.462,0,0,1,.7.3A.621.621,0,0,1,3.7,1.2a2.361,2.361,0,0,0-1.075.564c-.113.1-.227.2-.341.295a1.637,1.637,0,0,0-.674.932c.031.018.043.031.051.028A1.031,1.031,0,0,0,1.8,2.981a2.331,2.331,0,0,1,2.526.431.557.557,0,0,0,.16.064h0a9.026,9.026,0,0,1,.494,1.284,1.755,1.755,0,0,1-.113,1.167A2.494,2.494,0,0,1,3.419,7.441a3.7,3.7,0,0,1-1.842,0c-.179-.077-.412-.052-.506-.282A5.632,5.632,0,0,1,.3,6.234v0A5.054,5.054,0,0,1,0,4.451,7.671,7.671,0,0,1,.306,2.768v0A7.343,7.343,0,0,1,.961,1.743c.248-.278.506-.545.761-.817A7.286,7.286,0,0,1,2.922.14Zm-.4,3.692A1.236,1.236,0,0,0,1.291,4.9,1.391,1.391,0,0,0,2.552,6.371,1.272,1.272,0,0,0,2.526,3.83Z" transform="translate(134.346 59.935)" fill="#fff"/>
          <path id="Path_21381" data-name="Path 21381" d="M4.893,1.923l.011.21c.024.4.047.8.071,1.2a2.88,2.88,0,0,0-.084.846l-.061.068c-.126.288-.241.579-.378.86a5.305,5.305,0,0,1-1.9,1.975.824.824,0,0,1-.486.225,2.262,2.262,0,0,1-.921.275l-.067-.071a1.342,1.342,0,0,0-.215-.568h0c-.11-.256.013-.384.241-.48a1.124,1.124,0,0,0,.469-.224h0a1.561,1.561,0,0,0,.711-.422v0A2.2,2.2,0,0,0,3.377,4.5a4.854,4.854,0,0,1-1.1.315H2.009A2.631,2.631,0,0,1,.442,3.973h0A2.838,2.838,0,0,1,.154,1.495,1.94,1.94,0,0,1,.724.646,4.58,4.58,0,0,1,2.006.008L2.141,0h.567a1.845,1.845,0,0,0,.5.082,1.349,1.349,0,0,1,.7.358c.214.239.429.477.643.717a7.456,7.456,0,0,0,.35.765Zm-3.678.555a1.264,1.264,0,0,0,1.2,1.277c.589.008,1.264-.55,1.251-1.034a1.418,1.418,0,0,0-1.24-1.5A1.188,1.188,0,0,0,1.216,2.478Z" transform="translate(113.38 60)" fill="#fff"/>
          <path id="Path_21382" data-name="Path 21382" d="M2.771.018a.7.7,0,0,0,.5.061l.482.228c.058.037.113.078.174.111.681.356.683.36.336,1.017h0c-.178.237-.356.475-.706.278h0A1.637,1.637,0,0,0,2.7,1.291h0a1.153,1.153,0,0,0-.91.013.633.633,0,0,0-.371.843h0A.47.47,0,0,0,1.6,2.51a2.748,2.748,0,0,0,1.157.646,3.79,3.79,0,0,1,1.207.689,4.621,4.621,0,0,1,.706.925l0,0A3.03,3.03,0,0,1,4.7,5.886,2.545,2.545,0,0,1,3.682,7.238v0c-.167.052-.336.1-.5.156a4.063,4.063,0,0,1-1.974-.008c-.4-.006-.625-.332-.929-.514S-.077,6.46.143,6.175a1.764,1.764,0,0,0,.119-.217C.48,5.564.576,5.547.939,5.8a2.249,2.249,0,0,0,1.434.511.891.891,0,0,0,.854-.581A.83.83,0,0,0,2.9,4.8a3.254,3.254,0,0,0-.919-.519,4.871,4.871,0,0,1-1.361-.8A1.987,1.987,0,0,1,.707.519a2.871,2.871,0,0,1,2.06-.5Z" transform="translate(14.217 59.99)" fill="#fff"/>
          <path id="Path_21383" data-name="Path 21383" d="M1.739,4.55l-.424-.578c.006-.092-.058-.149-.1-.217C.834,3.214.46,2.67.081,2.13c-.133-.188-.109-.271.119-.388.364-.186.509.037.683.259l.842,1.267q.349.525.7,1.048l.088-.045c0-1.009,0-2.017,0-3.025,0-.14-.071-.313.113-.409.2-.1.255.111.38.171q.389.491.776.983a3.545,3.545,0,0,0,.643.781h0a2.1,2.1,0,0,0,.591.711c-.047-.554-.091-1.031-.128-1.51C4.844,1.444,4.813.916,4.772.387c-.026-.336.238-.339.446-.38.258-.051.18.17.218.3.113.388-.023.8.123,1.184h0A14.9,14.9,0,0,0,5.7,3.7c0,.091,0,.183.006.273,0,.256.007.513.007.769,0,.113.028.239-.092.317-.152.1-.229-.052-.337-.1h0a5.424,5.424,0,0,0-.849-1.06v0a.55.55,0,0,0-.29-.351c-.232-.122-.254-.407-.435-.567a2.937,2.937,0,0,0-.562-.7.607.607,0,0,0-.058.4q0,1.483,0,2.965c0,.254-.042.438-.363.31h0A12,12,0,0,0,1.74,4.547Z" transform="translate(47.622 2.483)" fill="#fff"/>
          <path id="Path_21384" data-name="Path 21384" d="M.774,4.3.637,4.16c-.183-.245-.21-.612-.564-.724,0-.089.088-.181-.006-.268a2.323,2.323,0,0,1,0-1.054A7.882,7.882,0,0,1,.5,1.048h0A2.627,2.627,0,0,1,3.177.07c.119.111.3.01.421.126A2.663,2.663,0,0,1,4.972,1.855a3.133,3.133,0,0,1-.094,1.663h0c-.1.164-.2.329-.3.492A2.311,2.311,0,0,1,2.864,5c-.225.007-.448.159-.674,0A4.28,4.28,0,0,1,.776,4.3ZM4.329,2.523A1.761,1.761,0,0,0,2.583.689,1.844,1.844,0,0,0,.773,2.49a1.775,1.775,0,0,0,1.77,1.816A1.749,1.749,0,0,0,4.329,2.521Z" transform="translate(77.488 0.878)" fill="#fff"/>
          <path id="Path_21385" data-name="Path 21385" d="M4.814,3.461c-.1.074-.008.225-.119.293a6.171,6.171,0,0,1-.85.849,2.384,2.384,0,0,1-2.183.278A3.758,3.758,0,0,1,.306,3.749h0a3.3,3.3,0,0,1-.3-1.624A1.334,1.334,0,0,1,.3,1.206,3.58,3.58,0,0,1,1.467.213a2.688,2.688,0,0,1,2.093,0h0A5.188,5.188,0,0,1,4.4.859l.061.067a2.729,2.729,0,0,1,.347,2.537Zm-.536-.928A1.764,1.764,0,0,0,2.489.7a1.754,1.754,0,0,0-1.8,1.7A1.855,1.855,0,0,0,2.5,4.291,1.737,1.737,0,0,0,4.28,2.533Z" transform="translate(25.823 18.853)" fill="#fff"/>
          <path id="Path_21386" data-name="Path 21386" d="M1.42,3.886c.051-.064.1-.129.152-.193A2.807,2.807,0,0,0,2.137,2.9h0c.5-.561.888-1.2,1.333-1.811a.6.6,0,0,0-.448.034c-.956.239-1.9.513-2.872.7l0,0A2.238,2.238,0,0,1,0,1.193l.289-.135A4.429,4.429,0,0,0,1.425.772h0A17.566,17.566,0,0,0,3.689.2L4.255.058a.771.771,0,0,0,.14-.011c.112-.028.235-.1.322.026a.31.31,0,0,1-.028.364c-.038.058-.067.123-.1.186L4.534.69A16.389,16.389,0,0,0,3.4,2.325h0a4.042,4.042,0,0,0-.587.843L2.7,3.337a2.321,2.321,0,0,0-.462.679c.723-.18,1.387-.322,2.032-.55.176-.082.385-.03.552-.143.126-.021.254-.033.377-.064.248-.062.346.078.388.283s.055.364-.218.421a2.414,2.414,0,0,0-.7.2l-.7.207-.422.086a3.412,3.412,0,0,0-1.077.272h-.03l-.028.006-.38.072a3.414,3.414,0,0,1-1.174.2v0A.6.6,0,0,1,1,4.528a1.843,1.843,0,0,0,.414-.645Z" transform="translate(117.076 35.154)" fill="#fff"/>
          <path id="Path_21387" data-name="Path 21387" d="M4.329,1.294a.406.406,0,0,0,.273.132.728.728,0,0,1,.442,1.01c-.069.221-.109.452-.162.679l-.132.341a6.084,6.084,0,0,1-.786.929,2.42,2.42,0,0,1-2.75.152A5.348,5.348,0,0,1,.221,3.484.593.593,0,0,1,.082,3.12,2.9,2.9,0,0,1,.362.994l0,0A3.125,3.125,0,0,1,1.456.066c.133-.058.282-.132.366.047s.19.39.028.6c0,0,0,0,0,0A1.558,1.558,0,0,0,.731,1.988a1.768,1.768,0,0,0,.813,1.791,1.808,1.808,0,0,0,2.783-1.4c.048-.415-.34-.4-.557-.524s-.2.136-.259.232c-.213.368-.374.421-.639.18-.078-.071-.129-.147-.075-.247Q3.1,1.46,3.411.91c.017-.03.084-.033.128-.047a3.233,3.233,0,0,0,.791.435Z" transform="translate(21.226 25.861)" fill="#fff"/>
          <path id="Path_21388" data-name="Path 21388" d="M2.513.1c.251.217.256.37-.047.585C2.033,1,1.65,1.374,1.245,1.721c-.235.118-.32.252-.061.442a1.851,1.851,0,0,1,.2.2l.132.14c.085.112.167.228.258.336a.169.169,0,0,0,.275.023,2.657,2.657,0,0,0,.611-.578,1.22,1.22,0,0,1,.428-.364c.17-.1.329-.235.516-.01.123.147.221.275.048.445l-.281.285c-.2.033-.3.208-.438.332a.691.691,0,0,0,.009,1.167c.041.045.084.091.125.137.094.132.162.4.374.213a4.757,4.757,0,0,0,.921-.856.992.992,0,0,1,.425-.361c.152-.051.268-.186.462-.007.339.313.028.452-.119.645-.069.065-.139.13-.207.2A11.63,11.63,0,0,0,3.509,5.328h0c-.238.213-.4.149-.6-.094a4.34,4.34,0,0,0-.819-.894C1.47,3.686.878,3,.3,2.3A.447.447,0,0,0,.211,2.2C-.142,1.984,0,1.81.252,1.644A13.815,13.815,0,0,0,2.029.093h0c.164-.078.327-.171.484.011Z" transform="translate(31.256 12.744)" fill="#fff"/>
          <path id="Path_21389" data-name="Path 21389" d="M4.17.132,4.37.12c.147-.033.295-.059.439-.1.262-.069.353.025.281.283-.028.1-.06.2-.089.3a6.881,6.881,0,0,0-.578,1.285c-.106.075-.007.232-.122.3a4.3,4.3,0,0,0-.446.969C3.586,3.781,3.343,4.41,3.024,5,2.546,4.8,2.461,4.6,2.65,4.142c.036-.086.062-.176.092-.263h0c.1-.15.262-.309.106-.493-.308-.364-.638-.71-.959-1.064h0c-.452-.592-.484-.6-1.132-.286h0a.623.623,0,0,0-.1.006.492.492,0,0,1-.646-.32c-.061-.3.259-.211.4-.312a.948.948,0,0,1,.152-.077c.469-.067.85-.409,1.334-.426A18.167,18.167,0,0,0,4.1.243c.033-.011.048-.074.071-.112ZM3.215,2.884c.268-.6.511-1.145.756-1.69.024-.054.058-.111.017-.164s-.106-.018-.16,0c-.513.167-1.024.339-1.538.5-.159.05-.19.108-.069.239.323.354.638.714.993,1.114Z" transform="translate(106.973 18.019)" fill="#fff"/>
          <path id="Path_21390" data-name="Path 21390" d="M4.1,1.856l-.068-.068A1.31,1.31,0,0,0,3.586.9c-.35-.286-.66-.324-.927-.12-.288.221-.324.507-.122.945A7.993,7.993,0,0,1,3.089,3,1.7,1.7,0,0,1,2.953,4.12c-.154.2-.281.431-.551.5a2.334,2.334,0,0,1-.99,0,1.361,1.361,0,0,1-.86-.57A4.537,4.537,0,0,1,0,2.978C0,2.89.007,2.8.01,2.713a.431.431,0,0,1,.268-.081c.289-.1.4.017.438.306A.783.783,0,0,0,.98,3.5a1.088,1.088,0,0,0,.18.2c.222.153.446.4.738.241s.541-.378.378-.781a.8.8,0,0,1-.018-.242,3.507,3.507,0,0,0-.424-.907A.524.524,0,0,1,1.7,1.646c0-.237,0-.473-.007-.71A.511.511,0,0,1,1.835.582,1.439,1.439,0,0,1,3.529.1,2.159,2.159,0,0,1,4.647,1.3c.095.4.059.456-.337.547a1.269,1.269,0,0,1-.208.013Z" transform="translate(102.497 12.319)" fill="#fff"/>
          <path id="Path_21391" data-name="Path 21391" d="M1.766,4.677c0-.071,0-.142,0-.211.026-.23.187-.227.361-.222a1.121,1.121,0,0,0,.772-.13h0A.675.675,0,0,0,3.292,3.9a.614.614,0,0,0-.221-1.1,1.4,1.4,0,0,0-.9.038l-.028,0-.028.006c-.174.016-.351.021-.524.05A1.376,1.376,0,0,1,.164,2.2,1.238,1.238,0,0,1,.423.658,4.625,4.625,0,0,1,1.135.149.1.1,0,0,0,1.2.139C1.4.1,1.606.04,1.814.012c.224-.031.435-.02.434.3,0,.271-.1.414-.4.4a.948.948,0,0,0-.8.276h0a.6.6,0,0,0-.275.856.807.807,0,0,0,.867.332c.348-.042.693-.113,1.04-.166a1.4,1.4,0,0,1,1.476.73,1.374,1.374,0,0,1-.343,1.548c-.152.145-.327.264-.493.394h0a2.883,2.883,0,0,1-1.2.224c-.171-.01-.3-.045-.351-.224Z" transform="translate(37.398 8.862)" fill="#fff"/>
          <path id="Path_21392" data-name="Path 21392" d="M5.056,2.376c-.017.424-.133.51-.64.418-.4-.072-.784-.178-1.176-.271-.662-.2-1.35-.266-2.019-.426-.373-.089-.458.084-.469.39,0,.058-.013.116-.02.174-.085.106-.044.232-.052.35-.1.264-.286.246-.506.177S0,2.971.028,2.8C.115,2.33.183,1.86.259,1.39A2.141,2.141,0,0,1,.407.613C.492.53.467.415.484.314.531.044.641-.055.941.03c.279.079.228.224.188.422-.193.939-.188.942.687,1.009a5.6,5.6,0,0,0,1.133.218.855.855,0,0,0,.157.061c.536.1,1.074.194,1.608.3.17.035.4.044.34.332Z" transform="translate(16.8 38.074)" fill="#fff"/>
          <path id="Path_21393" data-name="Path 21393" d="M.089,0H.781c.8.1,1.609.1,2.416.128L4.04.143A.568.568,0,0,0,4.415.2c.231,0,.438-.027.426.334-.01.323-.13.4-.426.384C3.17.86,1.923.817.677.766.512.759.349.728.186.715.077.707,0,.666,0,.547.011.361-.039.167.087,0Z" transform="translate(16.338 45.558)" fill="#fff"/>
          <path id="Path_21394" data-name="Path 21394" d="M.054,4.9a2.585,2.585,0,0,1,0-.979C.075,2.74.108,1.563.126.386.131.132.183-.005.482,0,.763.006.86.1.848.377.824.87.832,1.366.8,1.859c-.014.214.061.273.252.275.472,0,.942.014,1.414.021.784.095.883-.014.861-.931a1.632,1.632,0,0,0,.055-.73c0-.245.048-.364.33-.358S4.126.213,4.1.52c-.035.469-.047.939-.062,1.408-.033.917.013,1.835-.061,2.751-.026.307-.177.292-.388.3-.235.006-.351-.069-.337-.324.03-.516.038-1.034.067-1.55.011-.2-.064-.265-.262-.268-.623-.01-1.247-.023-1.867-.065C.849,2.746.7,2.846.784,3.2c0,.425-.01.85-.014,1.275-.027.14-.052.281-.079.419A.511.511,0,0,1,.059,4.9Z" transform="translate(69.417 0)" fill="#fff"/>
          <path id="Path_21395" data-name="Path 21395" d="M.075,2.938a1.4,1.4,0,0,1,0-.9A2.937,2.937,0,0,1,.936.609,2.656,2.656,0,0,1,3.185.045h0a4.1,4.1,0,0,1,1.2.715,4.191,4.191,0,0,1,.482.706,3.937,3.937,0,0,1,.156,1.619l0,0a4.644,4.644,0,0,1-.455.907c-.076.093-.152.2-.288.1-.159-.113-.35-.2-.372-.435A1.731,1.731,0,0,0,4.025,1.48,1.828,1.828,0,0,0,1.8.951,1.763,1.763,0,0,0,.844,3.018c.164.594.164.578.717.574.258,0,.288-.119.275-.326-.031-.519.113-.622.628-.462a13.535,13.535,0,0,1,.007,1.478l0,0a12.484,12.484,0,0,0-1.509.068C.676,4.4.545,4.217.431,3.992A7.192,7.192,0,0,1,.075,2.935Z" transform="translate(118.567 43.816)" fill="#fff"/>
          <path id="Path_21396" data-name="Path 21396" d="M2.186,1.991c.006.115.01.228.016.343.074.758.115,1.522.235,2.272.061.377-.167.343-.37.4-.245.064-.346-.054-.366-.289-.047-.55-.085-1.1-.156-1.646a12.029,12.029,0,0,0-.2-1.527Q1.346.88.712.915a.962.962,0,0,0-.281.02c-.3.11-.371-.058-.421-.3C-.046.366.123.31.327.289Q1.747.142,3.168,0c.218.541.135.674-.431.706-.163.008-.324.05-.489.06s-.21.077-.2.224a4.889,4.889,0,0,0,.137,1Z" transform="translate(62.045 0.228)" fill="#fff"/>
          <path id="Path_21397" data-name="Path 21397" d="M.684,5.027c-.266.137-.462-.044-.628-.184-.149-.126.035-.276.091-.407A8.942,8.942,0,0,0,.772,3.063c.14-.265.279-.528.418-.793a8.31,8.31,0,0,0,.557-1.04c.057-.1.044-.174-.067-.224A6.6,6.6,0,0,0,.767.581a.187.187,0,0,1,0-.293c.127-.237.286-.39.567-.207a1.712,1.712,0,0,1,.482.23A6.445,6.445,0,0,0,2.75.786l.339.157a2.708,2.708,0,0,0,.453.262c.259.091.317.207.2.47-.13.295-.288.232-.494.116a3.26,3.26,0,0,0-.353-.152h0q-.405-.272-.606.132c-.047.094-.085.193-.127.288L.812,4.74c-.047.094-.085.19-.127.285Z" transform="translate(93.789 5.517)" fill="#fff"/>
          <path id="Path_21398" data-name="Path 21398" d="M.03,1.9a.568.568,0,0,1,.293-.147,7.191,7.191,0,0,0,1.564-.7v0a15.5,15.5,0,0,0,2.251-1c.095-.111.186-.055.276.007a.59.59,0,0,1-.266.844h0a1.712,1.712,0,0,0-.572.264.152.152,0,0,0-.065.02,22.689,22.689,0,0,0-2.2.987h0c-.215.085-.431.17-.645.256C.519,2.5.345,2.645.22,2.5a.57.57,0,0,1-.19-.594Z" transform="translate(115.34 29.911)" fill="#fff"/>
          <path id="Path_21399" data-name="Path 21399" d="M.8.664C1,.515,1.2.37,1.393.217A.707.707,0,0,1,1.669.069C2.358-.1,2.5.012,2.5.717V6.773c0,.177-.011.354-.018.53l0,0c-.235.006-.47.016-.705.016-.569,0-.569,0-.569-.552V2.705q0-.776-.759-.52c-.01,0-.018.014-.027.023-.113-.026-.224.154-.34.006A.927.927,0,0,1,.5.957,1.462,1.462,0,0,0,.8.662h0Z" transform="translate(105.095 60.061)" fill="#fff"/>
          <path id="Path_21400" data-name="Path 21400" d="M1.165,4.788c-.2.047-.239-.1-.273-.261Q.456,2.456.012.387C-.039.151.074.059.286.037.47.017.661-.1.729.234c.279,1.4.587,2.785.88,4.178.058.278-.062.377-.443.377Z" transform="translate(57.224 1.319)" fill="#fff"/>
          <path id="Path_21401" data-name="Path 21401" d="M.576,1.275A2.313,2.313,0,0,0,.869.435l0,0c.279-.543.173-.492.772-.295A.522.522,0,0,0,1.7.152l0,0c.02.4-.248.737-.28,1.128A16.365,16.365,0,0,0,.746,3.238a1.069,1.069,0,0,0,.745,1.3A1.057,1.057,0,0,0,2.889,4a14.282,14.282,0,0,0,.667-2,2.569,2.569,0,0,0,.286-.854h0c.2-.3.445-.113.65-.023.235.1.042.282.017.424a4.077,4.077,0,0,1-.129.436c-.043.139-.085.278-.126.417A6.94,6.94,0,0,0,3.83,3.681h0c-.069.159-.145.316-.208.477A1.742,1.742,0,0,1,2.3,5.292a3.027,3.027,0,0,1-1.01-.052h0A2.21,2.21,0,0,1,.013,3.963a.161.161,0,0,0-.007-.068c0-.283,0-.565,0-.849A.665.665,0,0,1,.07,2.637c.2-.442.343-.907.509-1.363Z" transform="translate(86.187 2.628)" fill="#fff"/>
          <path id="Path_21402" data-name="Path 21402" d="M1.4,3.874a2.913,2.913,0,0,0-.815.468A.313.313,0,0,1,.127,4.3h0c-.055-.187-.254-.374,0-.562h0a3.349,3.349,0,0,0,.9-.568l.655-.428a.269.269,0,0,0,.262-.2Q2.455,1.3,2.96.055h0c.116-.085.228-.078.292.052.092.186.323.317.2.589-.132.3-.234.608-.35.912a.08.08,0,0,0-.011.059,4.254,4.254,0,0,0-.4.924l2.243.153h0c.044.084.1.163.132.249.048.122.234.218.113.371-.1.13-.256.055-.4.047-.609-.037-1.22-.064-1.829-.094-.643-.162-1.077.265-1.558.554Z" transform="translate(112.566 22.837)" fill="#fff"/>
          <path id="Path_21403" data-name="Path 21403" d="M16.624.653H.438C0,.653-.062.57.045.2.076.088.129.03.235.023S.424.017.519.017q16.132,0,32.265,0c.166,0,.415-.125.442.23.025.339-.1.407-.417.407Q24.716.645,16.623.652Z" transform="translate(0 71.972)" fill="#fff"/>
          <path id="Path_21404" data-name="Path 21404" d="M33.231.628c-.213,0-.425.013-.636.013Q16.521.64.445.638C.264.638.006.755,0,.375,0,.079.084,0,.378,0Q16.6.011,32.812.006c.412,0,.412,0,.418.622h0Z" transform="translate(105.309 71.983)" fill="#fff"/>
          <path id="Path_21405" data-name="Path 21405" d="M16.607.646H.459C.006.646-.035.6.018.2c.018-.13.062-.194.2-.19.106,0,.213,0,.319,0q16.113,0,32.225,0c.186,0,.442-.108.442.268,0,.295-.072.341-.378.349-1.393.037-2.784.011-4.177.014q-6.02.011-12.041,0Z" transform="translate(0.025 54.604)" fill="#fff"/>
          <path id="Path_21406" data-name="Path 21406" d="M3.168,7.2a2.641,2.641,0,0,1-1.217.065c-.17-.007-.125-.2-.126-.323,0-.779,0-1.558,0-2.338,0-.968,0-1.935,0-2.9,0-.125.045-.262-.058-.371A3.905,3.905,0,0,0,.513,1.273C.01,1.252,0,1.26,0,.75A.667.667,0,0,1,.761,0Q2.584,0,4.406,0c.511,0,.55.038.548.537,0,.8.082.728-.711.73a6.647,6.647,0,0,1-.672,0c-.306-.033-.4.065-.4.387.014,1.852,0,3.7,0,5.555Z" transform="translate(25.78 60.091)" fill="#fff"/>
        </g>
      </g>
    </g>
  </g>
</svg>
