<svg xmlns="http://www.w3.org/2000/svg" width="182.445" height="38.29" viewBox="0 0 182.445 38.29">
  <path id="Path_21368" data-name="Path 21368" d="M20.285-149.129c5.937,0,9.532-4.2,9.532-8.361,0-5.493-4.6-7.472-8.159-9.209-2.827-1.373-4.4-2.423-4.4-3.756a2.191,2.191,0,0,1,2.464-2.221c2.141,0,4.524,1.535,5.453,2.181a1.249,1.249,0,0,0,1.777-.283l2.06-3.11a1.023,1.023,0,0,0-.242-1.292,15.021,15.021,0,0,0-8.644-3.029c-6.22,0-9.33,4.039-9.33,8.038,0,4.847,3.918,7.028,7.836,8.926,2.666,1.292,4.16,2.383,4.16,4.079A2.531,2.531,0,0,1,20-154.743a10.356,10.356,0,0,1-5.735-2.221.952.952,0,0,0-1.373.242l-1.858,3.272a.909.909,0,0,0,.162,1.212C12.126-151.31,15.034-149.129,20.285-149.129Zm12.723-1.292a.9.9,0,0,0,.889.889h4.443a.81.81,0,0,0,.848-.889v-9.249c0-1.9.969-3.191,2.827-3.191,2.1,0,2.706,1.656,2.706,3.433v9.007a.871.871,0,0,0,.889.889h4.4a.889.889,0,0,0,.848-.889v-8.926c0-5.13-1.979-9.249-7.8-9.249a6.937,6.937,0,0,0-5.816,2.827l-.687-1.858a1.054,1.054,0,0,0-.848-.565H33.9a.871.871,0,0,0-.889.889ZM54.9-157.974c0,5.291,1.7,8.886,7.149,8.886a8.282,8.282,0,0,0,5.9-2.827l.646,1.737a1.072,1.072,0,0,0,.889.646h1.858a.9.9,0,0,0,.889-.889V-167.3a.871.871,0,0,0-.889-.889H67.1c-.444,0-1.01.121-1.01.889v9.532c0,1.656-.727,2.908-2.545,2.908-1.9,0-2.5-1.131-2.5-3.231V-167.3a.871.871,0,0,0-.889-.889h-4.4a.863.863,0,0,0-.848.889Zm40.431-9.33a.924.924,0,0,0-.889-.889H92.625c-.444,0-.808.444-.969.929l-.525,1.535a8.257,8.257,0,0,0-6.3-2.868c-5.251,0-9.209,4.362-9.209,9.694,0,6.584,4.281,9.815,9.249,9.815a8.723,8.723,0,0,0,4.322-1.131v.969c0,2.827-1.656,3.716-3.958,3.716a8.576,8.576,0,0,1-4.524-1.494.8.8,0,0,0-1.091.363l-1.414,3.393a.9.9,0,0,0,.2,1.05,13.776,13.776,0,0,0,6.947,2.02c5.614,0,9.977-3.191,9.977-9.936ZM81.8-158.863a3.948,3.948,0,0,1,3.958-4,3.9,3.9,0,0,1,3.958,4,3.875,3.875,0,0,1-3.958,4A3.923,3.923,0,0,1,81.8-158.863Zm17.974,8.442a.9.9,0,0,0,.889.889h1.818c.444,0,.808-.4.969-.929l.525-1.535a8.223,8.223,0,0,0,6.3,2.908c5.251,0,9.209-4.443,9.209-9.775,0-6.584-4.281-9.734-9.249-9.734a8.112,8.112,0,0,0-4.322,1.212v-9.532a.924.924,0,0,0-.889-.889h-4.362a.924.924,0,0,0-.889.889Zm5.7-8.482a3.777,3.777,0,0,1,3.958-3.878,3.789,3.789,0,0,1,3.918,3.878,3.832,3.832,0,0,1-3.918,3.958A3.819,3.819,0,0,1,105.469-158.9Zm17.247.929c0,5.291,1.7,8.886,7.149,8.886a8.282,8.282,0,0,0,5.9-2.827l.646,1.737a1.072,1.072,0,0,0,.889.646h1.858a.9.9,0,0,0,.889-.889V-167.3a.871.871,0,0,0-.889-.889h-4.241c-.444,0-1.01.121-1.01.889v9.532c0,1.656-.727,2.908-2.545,2.908-1.9,0-2.5-1.131-2.5-3.231V-167.3a.871.871,0,0,0-.889-.889h-4.4a.863.863,0,0,0-.848.889Zm21.73,7.553a.9.9,0,0,0,.889.889h4.241c.687,0,1.01-.323,1.01-.889V-160.2a2.409,2.409,0,0,1,2.464-2.585,5.166,5.166,0,0,1,1.414.283.79.79,0,0,0,1.05-.444l1.858-3.676a.743.743,0,0,0-.121-1.01,6.127,6.127,0,0,0-3.635-.969,5.182,5.182,0,0,0-4.645,3.029l-.848-2.06a.82.82,0,0,0-.848-.565h-1.939a.871.871,0,0,0-.889.889Zm19.307-.525-3.877,9.775a.836.836,0,0,0,.767,1.252h4.524a.937.937,0,0,0,.767-.565l11.027-26.5a.814.814,0,0,0-.808-1.212h-4.6a.843.843,0,0,0-.808.525l-3.595,9.9h-.081l-2.545-9.9a.74.74,0,0,0-.727-.525h-4.806a.839.839,0,0,0-.767,1.212Zm21.892,1.858c4.968,0,7.593-2.706,7.593-5.937,0-3.756-3.07-5.251-6.826-6.624-1.333-.485-2.1-.889-2.1-1.373s.283-.767,1.333-.767a10.577,10.577,0,0,1,4.362,1.131.748.748,0,0,0,.969-.323l1.454-2.989a.885.885,0,0,0-.485-1.212,15.381,15.381,0,0,0-6.382-1.414c-4.847,0-7.068,2.464-7.068,5.816,0,2.989,1.858,4.645,5.453,6.059,2.181.848,3.191,1.333,3.191,1.939,0,.444-.2.889-1.414.889a10.116,10.116,0,0,1-4.6-1.171.73.73,0,0,0-.969.4l-1.494,3.07a.673.673,0,0,0,.323.969A13.753,13.753,0,0,0,185.644-149.088Z" transform="translate(-10.793 178.21)" fill="#fff"/>
</svg>
