<svg id="Group_4412" data-name="Group 4412" xmlns="http://www.w3.org/2000/svg" width="24.3" height="33.076" viewBox="0 0 24.3 33.076">
  <path id="Path_20370" data-name="Path 20370" d="M33.75,10.8A12.153,12.153,0,0,0,21.6,22.95c0,6.539,11.391,20.166,11.855,20.757a.384.384,0,0,0,.337.169c.127,0,.253-.042.253-.169C34.551,43.158,45.9,29.489,45.9,22.95A12.153,12.153,0,0,0,33.75,10.8Zm-.169,16.453a4.978,4.978,0,1,1,4.978-4.978A4.987,4.987,0,0,1,33.581,27.253Z" transform="translate(-21.6 -10.8)" fill="#fff"/>
</svg>
