<svg xmlns="http://www.w3.org/2000/svg" width="17.972" height="22.187" viewBox="0 0 17.972 22.187">
  <g id="noun-bag-1087640" transform="translate(-12.349 -6.234)">
    <path id="Path_21369" data-name="Path 21369" d="M21.3,35.422q-3.135,0-6.271,0A2.694,2.694,0,0,1,13.1,34.78a2.26,2.26,0,0,1-.746-1.81c.073-1.7.18-3.406.271-5.11s.152-3.384.274-5.074A2.311,2.311,0,0,1,15.416,20.5c3.089-.008,6.179,0,9.268,0,.871,0,1.743-.009,2.613,0a2.343,2.343,0,0,1,2.471,2.347c.193,3.277.382,6.555.548,9.835a2.4,2.4,0,0,1-2.638,2.734C25.552,35.427,23.427,35.422,21.3,35.422Zm.035-1.255c2.1,0,4.2,0,6.308,0,1.041,0,1.47-.442,1.417-1.479-.081-1.6-.183-3.2-.273-4.8-.093-1.634-.178-3.268-.273-4.9a1.119,1.119,0,0,0-1.046-1.216c-.16-.016-.325-.014-.487-.014H15.8c-1.326,0-1.634.294-1.7,1.618-.059,1.229-.114,2.458-.179,3.686-.1,1.9-.228,3.8-.314,5.7-.043.956.367,1.36,1.32,1.4.093,0,.185,0,.278,0Z" transform="translate(0 -7.003)" fill="#fff"/>
    <path id="Path_21370" data-name="Path 21370" d="M21.966,25.7a1.076,1.076,0,0,1,1.074,1.09,1.085,1.085,0,1,1-2.17-.027A1.066,1.066,0,0,1,21.966,25.7Z" transform="translate(-4.183 -9.556)" fill="#fff"/>
    <path id="Path_21371" data-name="Path 21371" d="M35.959,25.7a1.076,1.076,0,0,1,1.074,1.09,1.085,1.085,0,1,1-2.17-.027A1.064,1.064,0,0,1,35.959,25.7Z" transform="translate(-11.052 -9.556)" fill="#fff"/>
    <path id="Path_21372" data-name="Path 21372" d="M23.009,16.772c0-1.444-.024-4.911.007-6.354a2.922,2.922,0,0,1,2.117-2.8A2.986,2.986,0,0,1,28.36,8.685a2.613,2.613,0,0,1,.493,1.5c.031,1.523.014,5.067.037,6.59h1.26c0-1.459,0-4.94-.017-6.4a4.123,4.123,0,0,0-.726-2.4,4.25,4.25,0,0,0-4.672-1.559,4.2,4.2,0,0,0-2.977,3.99c-.017,1.447-.011,4.916-.007,6.363Z" transform="translate(-4.613 0)" fill="#fff"/>
  </g>
</svg>
